<mxfile host="app.diagrams.net" modified="2024-01-28T00:27:14.192Z" agent="Mozilla/5.0 (Macintosh; Intel Mac OS X 10_15_7) AppleWebKit/537.36 (KHTML, like Gecko) Chrome/120.0.0.0 Safari/537.36" version="23.0.2" etag="9tF-G24DEv0IrPeWTUy7" type="github">
  <diagram name="Seite-1" id="16USbbO70b7DQstRqV7Z">
    <mxGraphModel>
      <root>
        <mxCell id="0" />
        <mxCell id="1" parent="0" />
      </root>
    </mxGraphModel>
  </diagram>
</mxfile>
